<svg id="Layer_1" data-name="Layer 1" xmlns="http://www.w3.org/2000/svg" viewBox="0 0 739.05 739.05"><defs><style>.cls-1{fill:#d52b29;}</style></defs><polygon class="cls-1" points="705.92 402.66 739.05 369.52 705.92 336.39 731.95 297.43 692.99 271.4 710.92 228.11 667.63 210.18 676.77 164.23 630.82 155.09 630.82 108.23 583.96 108.23 574.82 62.28 528.87 71.42 510.94 28.13 467.65 46.06 441.62 7.1 402.66 33.13 369.52 0 336.39 33.13 297.43 7.1 271.4 46.06 228.11 28.13 210.18 71.42 164.23 62.28 155.09 108.23 108.23 108.23 108.23 155.09 62.28 164.23 71.42 210.18 28.13 228.11 46.06 271.4 7.1 297.43 33.13 336.39 0 369.52 33.13 402.66 7.1 441.62 46.06 467.65 28.13 510.94 71.42 528.87 62.28 574.82 108.23 583.96 108.23 630.82 155.09 630.82 164.23 676.77 210.18 667.63 228.11 710.92 271.4 692.99 297.43 731.95 336.39 705.92 369.52 739.05 402.66 705.92 441.62 731.95 467.65 692.99 510.94 710.92 528.87 667.63 574.82 676.77 583.96 630.82 630.82 630.82 630.82 583.96 676.77 574.82 667.63 528.87 710.92 510.94 692.99 467.65 731.95 441.62 705.92 402.66"/></svg>